# xmcd
#
# Track frame offsets:
#	150
#	12160
#	25294
#	34793
#	47524
#	58485
#	71003
#	82945
#	94339
#	105551
#
# Disc length: 1598 seconds
# Revision: 0
# Processed by: cddbd v1.5.2PL0 Copyright (c) Steve Scherf et al.
# Submitted via: dBpowerAMP V12.0
#
DISCID=7d063c0a
DTITLE=Various Artist - Golden Oldies - Vol 1 (RM)
DYEAR=1900
DGENRE=Pop Vocal
TTITLE0=The Skyliners - Since I Don't Have You
TTITLE1=The Crests - 16 Candles
TTITLE2=The Shirelles - Dedicated to the One I Love
TTITLE3=Shep and The Limelites - Daddy's Home
TTITLE4=The Jaguars - The Way You Look Tonight
TTITLE5=Dionne Warwick - Don't Make Me Over
TTITLE6=The Duprees - You Belong to Me
TTITLE7=The Chimes - Once in a While
TTITLE8=The Dreamlovers - When We Get Married
TTITLE9=Little Caesar and The Romans - Those Oldies But Goodies
EXTD=
EXTT0=
EXTT1=
EXTT2=
EXTT3=
EXTT4=
EXTT5=
EXTT6=
EXTT7=
EXTT8=
EXTT9=
PLAYORDER=
